<?xml version="1.0" encoding="UTF-8" standalone="no" ?>
<!DOCTYPE svg PUBLIC "-//W3C//DTD SVG 1.1//EN" "http://www.w3.org/Graphics/SVG/1.1/DTD/svg11.dtd">
<svg xmlns="http://www.w3.org/2000/svg" xmlns:xlink="http://www.w3.org/1999/xlink" version="1.1" width="1080" height="1080" viewBox="0 0 1080 1080" xml:space="preserve">
<desc>Created with Fabric.js 5.2.4</desc>
<defs>
</defs>
<g transform="matrix(1 0 0 1 540 540)" id="2de5347f-d213-411d-bb51-dde16c65be67"  >
<rect style="stroke: none; stroke-width: 1; stroke-dasharray: none; stroke-linecap: butt; stroke-dashoffset: 0; stroke-linejoin: miter; stroke-miterlimit: 4; fill: rgb(255,255,255); fill-rule: nonzero; opacity: 1; visibility: hidden;" vector-effect="non-scaling-stroke"  x="-540" y="-540" rx="0" ry="0" width="32px" height="32px" />
</g>
<g transform="matrix(1 0 0 1 540 540)" id="249377d3-8ee9-44e2-8398-441f132859a0"  >
</g>
<g transform="matrix(0.98 0 0 0.98 527.89 531.09)"  >
<g style="" vector-effect="non-scaling-stroke"   >
		<g transform="matrix(1 0 0 1 79.05 -231.53)"  >
<path style="stroke: none; stroke-width: 1; stroke-dasharray: none; stroke-linecap: butt; stroke-dashoffset: 0; stroke-linejoin: miter; stroke-miterlimit: 4; fill: rgb(255,87,87); fill-rule: nonzero; opacity: 1;" vector-effect="non-scaling-stroke"  transform=" translate(132.57, -144.49)" d="M 0 0 C 7.52919763 22.5875929 -7.75055266 65.45462718 -15 87 C -15.25217285 87.7724707 -15.5043457 88.54494141 -15.76416016 89.34082031 C -20.79602949 104.62436989 -28.22677984 119.52649997 -37 133 C -37.56203125 133.87785156 -38.1240625 134.75570312 -38.703125 135.66015625 C -39.81608004 137.38860915 -40.93236887 139.11491706 -42.05078125 140.83984375 C -43.51080652 143.20689875 -44.857612 145.55647743 -46.16796875 148.00390625 C -46.54469727 148.68638428 -46.92142578 149.3688623 -47.30957031 150.07202148 C -48.0471088 151.41443732 -48.76245138 152.76935137 -49.45214844 154.13696289 C -50.49609375 156.0078125 -50.49609375 156.0078125 -53 159 C -56.00239493 159.842527 -57.93446301 160.01201162 -61 160 C -62.14782959 160.02368652 -63.29565918 160.04737305 -64.47827148 160.07177734 C -67.92818066 160.12496087 -71.37368934 160.14045666 -74.82373047 160.13037109 C -76.96719672 160.12508096 -79.11044696 160.13030268 -81.25390625 160.13671875 C -82.66927143 160.13667809 -84.08463714 160.13537804 -85.5 160.1328125 C -86.19681885 160.13202698 -86.8936377 160.13124146 -87.61157227 160.13043213 C -91.26932041 160.10245962 -94.87947354 159.9542929 -98.5234375 159.62792969 C -99.25369141 159.56523895 -99.98394531 159.50254822 -100.73632812 159.43795776 C -102.76098513 159.25262422 -104.7829956 159.03901252 -106.8046875 158.82373047 C -110.05496519 158.65628319 -110.05496519 158.65628319 -111.91796875 160.82861328 C -113.26581456 163.53342841 -113.5222679 165.015612 -113 168 C -108.73911882 173.37731399 -102.80541837 173.79982932 -96.38916016 174.72705078 C -89.30631572 175.53622921 -82.15252062 175.6795336 -75.03027344 175.84228516 C -73 176 -73 176 -70 177 C -70 180 -70 180 -71.50390625 181.54296875 C -72.18324219 182.08566406 -72.86257813 182.62835938 -73.5625 183.1875 C -78.53593796 187.35396037 -82.58402274 192.06750346 -86.69921875 197.0625 C -87.49779297 198.0215625 -87.49779297 198.0215625 -88.3125 199 C -88.78300781 199.5775 -89.25351562 200.155 -89.73828125 200.75 C -91 202 -91 202 -93 202 C -93.25885986 202.58193115 -93.51771973 203.1638623 -93.78442383 203.76342773 C -95.98825967 207.81832634 -99.44920794 210.81836792 -102.6875 214.0625 C -103.38294922 214.78244141 -104.07839844 215.50238281 -104.79492188 216.24414062 C -114.34480426 225.84752375 -124.4133791 226.20867014 -137.34692383 226.25976562 C -143.99248315 226.1933292 -150.34903094 225.3636 -156.86083984 224.06738281 C -161.67273924 223.12007879 -166.0875552 222.69197643 -171 223 C -173.33333333 225 -173.33333333 225 -174 228 C -173.39846676 231.34185133 -172.79159998 233.28277854 -170.25390625 235.58203125 C -162.27889016 240.59924241 -150.7925536 240.57142607 -141.62890625 241.26586914 C -140.38367188 241.36822876 -140.38367188 241.36822876 -139.11328125 241.47265625 C -138.36860596 241.52687744 -137.62393066 241.58109863 -136.85668945 241.63696289 C -135 242 -135 242 -133 244 C -161.62007501 268.7009296 -199.99563908 289.90474033 -239 289 C -240 286 -240 286 -238.76953125 282.98046875 C -238.12870648 281.7102686 -237.4752694 280.446389 -236.8125 279.1875 C -236.45591309 278.495354 -236.09932617 277.80320801 -235.73193359 277.09008789 C -234.50154798 274.71935121 -233.25207764 272.35934778 -232 270 C -231.53803223 269.12150391 -231.07606445 268.24300781 -230.60009766 267.33789062 C -224.94829321 256.62202389 -219.10687301 246.1921276 -212.21484375 236.22265625 C -210.30301507 233.44089495 -208.51169482 230.62758132 -206.75 227.75 C -201.32413832 219.16542072 -195.09338918 211.11584118 -189 203 C -188.14317627 201.8562793 -188.14317627 201.8562793 -187.26904297 200.68945312 C -180.56033179 191.75490901 -173.66547401 183.04432518 -166.36474609 174.58691406 C -164.43681198 172.34513021 -162.53009398 170.08568871 -160.62329102 167.82592773 C -159.23595766 166.18240598 -157.84485878 164.54213943 -156.453125 162.90234375 C -154.97443998 161.15288042 -153.50326949 159.39696916 -152.046875 157.62890625 C -150.73888236 156.05106076 -149.37688322 154.51810202 -148 153 C -147.34 153 -146.68 153 -146 153 C -145.60035034 152.11139282 -145.60035034 152.11139282 -145.19262695 151.20483398 C -143.97554782 148.95479475 -142.73700372 147.50668388 -140.91796875 145.72265625 C -140.31533203 145.12646484 -139.71269531 144.53027344 -139.09179688 143.91601562 C -138.14916992 142.99852539 -138.14916992 142.99852539 -137.1875 142.0625 C -136.57068359 141.45470703 -135.95386719 140.84691406 -135.31835938 140.22070312 C -134.15489954 139.074553 -132.98938181 137.9304849 -131.82104492 136.78930664 C -127.81769415 132.85572871 -123.87008633 128.86592628 -119.91227722 124.8866272 C -117.21592602 122.17678937 -114.51683036 119.46969178 -111.81762695 116.76269531 C -110.40200841 115.34204706 -108.98728856 113.9205027 -107.57348633 112.49804688 C -105.51364569 110.42596386 -103.45049212 108.35722771 -101.38671875 106.2890625 C -100.76560715 105.66278961 -100.14449554 105.03651672 -99.50456238 104.39126587 C -94.26473927 99.15078741 -88.76634878 94.267021 -83.03515625 89.5703125 C -74.44491938 82.50396784 -66.56058768 74.78149049 -58.6875 66.9375 C -58.11790558 66.37299133 -57.54831116 65.80848267 -56.9614563 65.22686768 C -55.32647227 63.6036385 -53.69910128 61.97317814 -52.07421875 60.33984375 C -51.57693268 59.84652054 -51.07964661 59.35319733 -50.56729126 58.84492493 C -48.31064745 56.55748807 -47.03250164 55.09750493 -46 52 C -52.28685336 52.42580282 -56.5755856 54.60448411 -61.9375 57.8125 C -62.76652832 58.30097412 -63.59555664 58.78944824 -64.44970703 59.29272461 C -72.08478924 63.88238548 -79.16972861 69.06733606 -86.16845703 74.56542969 C -87.93286851 75.94741874 -89.71075953 77.30925235 -91.49609375 78.6640625 C -101.16097102 86.00582764 -110.57244283 93.58229433 -119.54296875 101.76171875 C -121.15978342 103.23458807 -122.787193 104.69592425 -124.42578125 106.14453125 C -129.75154758 110.85872633 -134.83658838 115.75057353 -139.80224609 120.83911133 C -142.71360424 123.80244034 -145.74633326 126.42394716 -149 129 C -150.35386936 130.65002828 -151.68678142 132.3174387 -153 134 C -155.17513847 136.23392599 -157.39775215 138.41219455 -159.62890625 140.58984375 C -163.29400001 144.20574162 -166.7547659 147.93011567 -170.11328125 151.83203125 C -172.22445509 154.25791424 -174.39259971 156.62655797 -176.5625 159 C -179.74570792 162.5273385 -182.68859904 166.11794389 -185.48828125 169.953125 C -189.98699231 176.04440302 -194.86269916 181.84482689 -199.75 187.625 C -212.19707368 202.52318973 -222.90303827 218.43398919 -233 235 C -233.85134606 236.37674819 -234.70508861 237.75202098 -235.5625 239.125 C -236.14837891 240.06666016 -236.14837891 240.06666016 -236.74609375 241.02734375 C -237.63610694 242.42752026 -238.54726053 243.81435851 -239.47265625 245.19140625 C -245.76186871 254.69213145 -250.80848488 264.87224393 -256 275 C -260.2171145 274.3702631 -262.35572312 273.42444969 -264.99609375 269.8984375 C -267.00265253 266.10393335 -266.92435161 262.2200992 -267 258 C -267.03867187 256.81792969 -267.07734375 255.63585937 -267.1171875 254.41796875 C -268.19497143 207.48484796 -255.18573207 161.14614214 -225.125 124.6875 C -224.66037354 124.11725098 -224.19574707 123.54700195 -223.71704102 122.95947266 C -222.54595181 121.57902312 -221.27900801 120.28110474 -220 119 C -219.01 119 -218.02 119 -217 119 C -215.67678466 121.64643068 -215.64485797 123.94658599 -215.38671875 126.8984375 C -215.27263672 128.10113281 -215.15855469 129.30382812 -215.04101562 130.54296875 C -214.80900946 133.0578643 -214.58479004 135.57349286 -214.36914062 138.08984375 C -213.66521079 145.34455232 -212.38419644 151.76423513 -209.81567383 158.59619141 C -209 161 -209 161 -209 164 C -206.03 164.33 -203.06 164.66 -200 165 C -199.04143239 162.12429718 -198.88806063 160.39491144 -198.91821289 157.4152832 C -198.92800926 156.02156242 -198.92800926 156.02156242 -198.93800354 154.59968567 C -198.94943893 153.59354721 -198.96087433 152.58740875 -198.97265625 151.55078125 C -198.98532369 149.40039236 -198.99768303 147.25000163 -199.00976562 145.09960938 C -199.03436611 141.72544571 -199.0621101 138.35137905 -199.09594727 134.97729492 C -199.44602914 97.72251956 -199.44602914 97.72251956 -190 87 C -188.07419026 85.25433282 -186.10674714 83.56535253 -184.12890625 81.87890625 C -182.0463054 80.0408677 -180.11907613 78.12003653 -178.1875 76.125 C -173.45266466 71.33478647 -168.28935073 67.16000287 -163 63 C -161.66195312 61.93652344 -161.66195312 61.93652344 -160.296875 60.8515625 C -132.73870523 39.52862109 -101.15001216 25.33309133 -68.05810547 14.96386719 C -65.34317289 14.10816275 -62.64155991 13.22126938 -59.94140625 12.3203125 C -46.01145171 7.78093491 -31.69746056 5.26224614 -17.31469727 2.63037109 C -14.44914373 2.08541571 -11.60865714 1.48647883 -8.765625 0.8359375 C -5.66468313 0.14755414 -3.14772274 -0.20307889 0 0 Z" stroke-linecap="round" />
</g>
		<g transform="matrix(1 0 0 1 -85.73 -163.12)"  >
<path style="stroke: none; stroke-width: 1; stroke-dasharray: none; stroke-linecap: butt; stroke-dashoffset: 0; stroke-linejoin: miter; stroke-miterlimit: 4; fill: rgb(255,87,87); fill-rule: nonzero; opacity: 1;" vector-effect="non-scaling-stroke"  transform=" translate(88.36, -134.9)" d="M 0 0 C 0 0.66 0 1.32 0 2 C -1.5390625 3.4453125 -1.5390625 3.4453125 -3.625 5.125 C -11.29886518 11.71421993 -14.991226 18.3719232 -18 28 C -19.02996094 28.15855469 -20.05992187 28.31710937 -21.12109375 28.48046875 C -57.00503465 34.24540183 -92.37290409 50.66794127 -116 79 C -116.61617188 79.69351563 -117.23234375 80.38703125 -117.8671875 81.1015625 C -124.57821543 88.94457105 -129.24351825 97.89779378 -134 107 C -134.50660156 107.94617188 -135.01320313 108.89234375 -135.53515625 109.8671875 C -142.24873807 123.38069945 -145.69529734 139.05093695 -147 154 C -147.14223999 155.30445068 -147.14223999 155.30445068 -147.28735352 156.63525391 C -148.05469485 164.26851199 -147.91347013 171.60885933 -147.3125 179.25 C -147.22218506 180.42788086 -147.13187012 181.60576172 -147.03881836 182.81933594 C -146.15186817 193.17823129 -144.60004259 203.11438605 -140.421875 212.7109375 C -139 216 -139 216 -138.1875 219.375 C -136.89554936 223.31884933 -135.08159812 225.96189406 -132.7265625 229.33203125 C -130.65658482 232.53066191 -128.89724469 235.85048946 -127.1875 239.25 C -126.31158203 240.99023438 -126.31158203 240.99023438 -125.41796875 242.765625 C -124.18348039 245.58148275 -123.43793755 247.97424964 -123 251 C -123.49628906 251.37769531 -123.99257813 251.75539063 -124.50390625 252.14453125 C -130.46956631 256.97818751 -134.1279248 262.42793723 -138 269 C -138.66 269.99 -139.32 270.98 -140 272 C -145.23150784 266.4502292 -149.27983299 260.70922305 -153 254.0625 C -153.51763916 253.1444458 -154.03527832 252.2263916 -154.56860352 251.28051758 C -163.40523545 235.3120835 -169.23081663 218.32695849 -173.25 200.5625 C -173.41330811 199.8413501 -173.57661621 199.1202002 -173.74487305 198.37719727 C -182.90676897 155.92594055 -169.93980041 112.12577401 -147.36767578 76.11767578 C -132.30125765 52.78920186 -110.22165035 33.35407127 -86 20 C -85.37931641 19.65340332 -84.75863281 19.30680664 -84.11914062 18.94970703 C -63.29686777 7.46509073 -23.99930843 -7.99976948 0 0 Z" stroke-linecap="round" />
</g>
		<g transform="matrix(1 0 0 1 64.98 -80.82)"  >
<path style="stroke: none; stroke-width: 1; stroke-dasharray: none; stroke-linecap: butt; stroke-dashoffset: 0; stroke-linejoin: miter; stroke-miterlimit: 4; fill: rgb(255,87,87); fill-rule: nonzero; opacity: 1;" vector-effect="non-scaling-stroke"  transform=" translate(100.65, -118.19)" d="M 0 0 C 4.26419787 3.7089267 6.14606579 7.06856392 7.5625 12.4375 C 7.76447998 13.17919434 7.96645996 13.92088867 8.17456055 14.68505859 C 8.81420176 17.11664878 9.4121839 19.55539347 10 22 C 10.20044922 22.80614746 10.40089844 23.61229492 10.60742188 24.44287109 C 16.10426667 47.28181065 15.9001336 72.05715007 11 95 C 10.83371094 95.80904785 10.66742187 96.6180957 10.49609375 97.45166016 C 5.39153994 121.70301718 -4.93627598 142.74978958 -19 163 C -19.39461426 163.57186035 -19.78922852 164.1437207 -20.19580078 164.73291016 C -24.91996295 171.54779946 -24.91996295 171.54779946 -27 174 C -27.66 174 -28.32 174 -29 174 C -29.27199219 174.58910156 -29.54398438 175.17820312 -29.82421875 175.78515625 C -30.9755375 177.95391947 -32.19983675 179.59506415 -33.8125 181.4375 C -34.29332031 181.99308594 -34.77414062 182.54867187 -35.26953125 183.12109375 C -64.40527868 214.75607008 -107.77618919 233.95184411 -150.53466797 236.18457031 C -172.92387876 236.98987509 -194.80380517 235.63447079 -216 228 C -215.17697263 224.24721479 -213.64116923 221.68298979 -211.5625 218.4375 C -208.12203713 212.70574525 -206.63835796 207.61807849 -206 201 C -204.83082031 201.27714844 -203.66164063 201.55429687 -202.45703125 201.83984375 C -200.90886477 202.20577401 -199.36068709 202.57165693 -197.8125 202.9375 C -197.04357422 203.11990234 -196.27464844 203.30230469 -195.48242188 203.49023438 C -194.73154297 203.66748047 -193.98066406 203.84472656 -193.20703125 204.02734375 C -192.11575928 204.28620361 -192.11575928 204.28620361 -191.00244141 204.55029297 C -189.3499308 204.92141276 -187.68181139 205.22228278 -186.01171875 205.50390625 C -185.34785156 205.66761719 -184.68398438 205.83132813 -184 206 C -183.67 206.66 -183.34 207.32 -183 208 C -182.33613281 207.91621094 -181.67226563 207.83242188 -180.98828125 207.74609375 C -176.36063895 207.21239486 -172.56113799 206.91973048 -168 208 C -164.23552504 208.11950714 -160.91278982 208.15957864 -157.20703125 207.51171875 C -153.65983472 206.94572271 -150.21421986 206.81490638 -146.625 206.6875 C -138.07040409 206.24707322 -130.19422893 204.40890585 -122 202 C -121.3080957 201.79826172 -120.61619141 201.59652344 -119.90332031 201.38867188 C -80.37809049 189.74105219 -50.37404842 166.22308318 -30.17480469 130.08984375 C -26.48709632 123.28176676 -23.60591788 116.28218156 -21 109 C -20.62101563 107.98035156 -20.24203125 106.96070313 -19.8515625 105.91015625 C -11.89955086 82.68191173 -12.02131393 56.80054802 -17 33 C -17.21269531 31.90171875 -17.42539062 30.8034375 -17.64453125 29.671875 C -18.07702284 27.44407661 -18.53428732 25.22109124 -19 23 C -18.030625 22.608125 -17.06125 22.21625 -16.0625 21.8125 C -8.52540119 17.56040964 -3.5941856 7.52959135 0 0 Z" stroke-linecap="round" />
</g>
		<g transform="matrix(1 0 0 1 -54.38 -65.17)"  >
<path style="stroke: none; stroke-width: 1; stroke-dasharray: none; stroke-linecap: butt; stroke-dashoffset: 0; stroke-linejoin: miter; stroke-miterlimit: 4; fill: rgb(255,87,87); fill-rule: nonzero; opacity: 1;" vector-effect="non-scaling-stroke"  transform=" translate(-11, -24.85)" d="M 0 0 C 0 0.66 0 1.32 0 2 C 1.32 2 2.64 2 4 2 C 4 2.66 4 3.32 4 4 C 4.60585938 4.14695312 5.21171875 4.29390625 5.8359375 4.4453125 C 17.10223299 7.46121314 25.77219194 14.08651441 35 21 C 35.72445312 21.53238281 36.44890625 22.06476562 37.1953125 22.61328125 C 40.44641954 25.11142627 41.90513853 27.04165467 43 31 C 43.3547037 37.29904846 41.52445586 42.24362597 37.7890625 47.2890625 C 36 49 36 49 32.3125 49.9375 C 26.57349414 49.21473046 21.85015317 45.94515325 17 43 C 15.67059781 42.2164941 14.3397809 41.43538533 13.0078125 40.65625 C 10.09978948 38.95472241 7.19858441 37.2423037 4.30078125 35.5234375 C 0.95340753 33.54609227 -2.42597737 31.63715999 -5.82666016 29.75341797 C -17.26745534 23.36980838 -17.26745534 23.36980838 -21 19 C -21.41410639 12.58135098 -18.9901338 7.94503762 -15 3 C -10.62786924 -0.9973767 -5.59554634 -0.29335874 0 0 Z" stroke-linecap="round" />
</g>
		<g transform="matrix(1 0 0 1 22.1 -39.98)"  >
<path style="stroke: none; stroke-width: 1; stroke-dasharray: none; stroke-linecap: butt; stroke-dashoffset: 0; stroke-linejoin: miter; stroke-miterlimit: 4; fill: rgb(255,87,87); fill-rule: nonzero; opacity: 1;" vector-effect="non-scaling-stroke"  transform=" translate(12.54, -17.26)" d="M 0 0 C 5.82485821 6.41471727 8.60542383 11.7797017 8.3203125 20.546875 C 7.50666673 26.88961361 3.86119269 31.04500414 -1.046875 34.9296875 C -6.21736121 38.32218043 -10.98706469 39.6959717 -17.1484375 38.7890625 C -23.07707671 37.27007885 -26.78713422 34.31889879 -30.33984375 29.40625 C -33.35654662 24.21373704 -33.96183615 19.12909004 -33.0234375 13.2265625 C -31.33889414 8.30185156 -28.58213901 4.02251077 -25.0234375 0.2265625 C -24.3634375 0.2265625 -23.7034375 0.2265625 -23.0234375 0.2265625 C -23.0234375 -0.4334375 -23.0234375 -1.0934375 -23.0234375 -1.7734375 C -15.01081085 -5.41554052 -6.92049074 -6.06544941 0 0 Z" stroke-linecap="round" />
</g>
		<g transform="matrix(1 0 0 1 -104.32 20.98)"  >
<path style="stroke: none; stroke-width: 1; stroke-dasharray: none; stroke-linecap: butt; stroke-dashoffset: 0; stroke-linejoin: miter; stroke-miterlimit: 4; fill: rgb(255,87,87); fill-rule: nonzero; opacity: 1;" vector-effect="non-scaling-stroke"  transform=" translate(16.95, -72)" d="M 0 0 C 5.50838781 1.55614166 10.13505755 4.17045963 15.0625 7 C 21.8265189 10.9223912 21.8265189 10.9223912 29 14 C 29 14.66 29 15.32 29 16 C 30.32 16.66 31.64 17.32 33 18 C 32.34 18.33 31.68 18.66 31 19 C 30.46770823 21.17417873 30.46770823 21.17417873 30.21875 23.8203125 C 30.10031738 24.82352539 29.98188477 25.82673828 29.85986328 26.86035156 C 29.7411084 27.93768555 29.62235352 29.01501953 29.5 30.125 C 29.30446533 31.7642041 29.30446533 31.7642041 29.10498047 33.43652344 C 28.54628406 38.1234809 28.01371394 42.81160682 27.5390625 47.5078125 C 26.28257725 58.86359427 22.61090535 67.7515744 16.625 77.375 C 16.27429443 77.94613525 15.92358887 78.51727051 15.56225586 79.10571289 C 10.77078243 86.46585569 4.29619989 90.64868275 -3.375 94.625 C -24.34936277 105.91002458 -42.30382592 120.09782875 -54.4921875 140.8828125 C -56 143 -56 143 -59 144 C -65.54342055 140.95392491 -65.54342055 140.95392491 -66.875 138.171875 C -67.05140897 135.10676918 -65.94128237 133.55697225 -64.375 130.9375 C -58.51713951 121.05050196 -55.09143612 111.46391684 -52.6875 100.25 C -52.09387167 97.5948456 -51.48983693 94.94207512 -50.88671875 92.2890625 C -50.73363251 91.61100555 -50.58054626 90.93294861 -50.42282104 90.23434448 C -43.1855585 58.2499176 -36.09982294 32.54311701 -9.59765625 11.14453125 C -3.65473658 6.42450121 -3.65473658 6.42450121 0 0 Z M -16.375 37.1875 C -19.49626632 42.58969171 -20.59008419 47.75030403 -19 53.8125 C -16.41495114 57.93242162 -13.86410174 61.0393696 -9.11328125 62.6328125 C -3.91080833 63.59358353 0.43567082 62.62566565 5 60 C 8.25001906 57.41267463 10.65958125 55.02125626 12 51 C 12.51578753 46.08733521 12.57444169 42.1709773 10.375 37.6875 C 5.28327356 31.83243754 5.28327356 31.83243754 -1.875 29.375 C -7.85289613 29.77581679 -12.11142357 33.26052171 -16.375 37.1875 Z M -32 76 C -35.20347846 80.50489159 -35.19184554 83.77593094 -34.51953125 89.046875 C -34.11700229 91.21738098 -34.11700229 91.21738098 -32 93 C -28.75789481 93.83787121 -28.75789481 93.83787121 -25 93 C -20.17507566 89.42990946 -15.84302918 84.77482478 -14 79 C -13.98111445 75.29320175 -13.98111445 75.29320175 -15 72 C -21.98578026 67.34281316 -27.02570408 70.42314761 -32 76 Z" stroke-linecap="round" />
</g>
		<g transform="matrix(1 0 0 1 -490.5 299.48)"  >
<path style="stroke: none; stroke-width: 1; stroke-dasharray: none; stroke-linecap: butt; stroke-dashoffset: 0; stroke-linejoin: miter; stroke-miterlimit: 4; fill: rgb(255,87,87); fill-rule: nonzero; opacity: 1;" vector-effect="non-scaling-stroke"  transform=" translate(-20.87, -76.5)" d="M 0 0 C 1.32 0.33 2.64 0.66 4 1 C 3.01 2.485 3.01 2.485 2 4 C 2.99 4.33 3.98 4.66 5 5 C 4.01 5.33 3.02 5.66 2 6 C 2.433125 6.433125 2.86625 6.86625 3.3125 7.3125 C 3.869375 7.869375 4.42625 8.42625 5 9 C 5.5775 9.45375 6.155 9.9075 6.75 10.375 C 8 12 8 12 7.6875 14.6875 C 7.460625 15.450625 7.23375 16.21375 7 17 C 6.67 16.34 6.34 15.68 6 15 C 4.68 15.33 3.36 15.66 2 16 C 2.33 18.31 2.66 20.62 3 23 C 5.31 23.66 7.62 24.32 10 25 C 10 25.33 10 25.66 10 26 C 8.35 26 6.7 26 5 26 C 5.28875 26.54269531 5.5775 27.08539062 5.875 27.64453125 C 6.24625 28.35996094 6.6175 29.07539062 7 29.8125 C 7.556875 30.87404297 7.556875 30.87404297 8.125 31.95703125 C 9 34 9 34 9 37 C 9.66 37.33 10.32 37.66 11 38 C 12.125 40.0625 12.125 40.0625 13 42 C 12.01 43.32 11.02 44.64 10 46 C 10.8971875 46.0928125 10.8971875 46.0928125 11.8125 46.1875 C 14 47 14 47 15.75 49.1875 C 17.16862001 52.37939501 17.23043026 54.54354606 17 58 C 17 58.66 17 59.32 17 60 C 17.474375 60.45375 17.94875 60.9075 18.4375 61.375 C 20.22093737 63.22977487 20.5691993 64.50135592 21 67 C 20.01 67.495 20.01 67.495 19 68 C 19 67.34 19 66.68 19 66 C 18.2575 66.061875 17.515 66.12375 16.75 66.1875 C 13.45103722 65.96257072 12.2843291 65.36591228 10 63 C 9.25 60.3125 9.25 60.3125 9 58 C 8.67 58.99 8.34 59.98 8 61 C 7.01 61.495 7.01 61.495 6 62 C 6.66 62.66 7.32 63.32 8 64 C 8.66 64.845625 9.32 65.69125 10 66.5625 C 11.76637442 69.05309672 11.76637442 69.05309672 14 70 C 13.67 69.01 13.34 68.02 13 67 C 14.32 67.33 15.64 67.66 17 68 C 17.0825 68.61875 17.165 69.2375 17.25 69.875 C 17.81258459 72.18437567 17.81258459 72.18437567 20.0625 73.25 C 21.0215625 73.62125 21.0215625 73.62125 22 74 C 22 74.66 22 75.32 22 76 C 22.66 76 23.32 76 24 76 C 24 76.66 24 77.32 24 78 C 24.66 78 25.32 78 26 78 C 26 78.66 26 79.32 26 80 C 26.66 80 27.32 80 28 80 C 28.66 81.32 29.32 82.64 30 84 C 30.99 83.01 30.99 83.01 32 82 C 32.99 82.33 33.98 82.66 35 83 C 34.505 84.98 34.505 84.98 34 87 C 35.65 87 37.3 87 39 87 C 39 87.66 39 88.32 39 89 C 37.865625 89.12375 36.73125 89.2475 35.5625 89.375 C 33.7990625 89.684375 33.7990625 89.684375 32 90 C 31.67 90.66 31.34 91.32 31 92 C 31.99 92.33 32.98 92.66 34 93 C 31 94 31 94 27 94 C 27 94.66 27 95.32 27 96 C 28.65 96 30.3 96 32 96 C 32 97.65 32 99.3 32 101 C 31.34 101 30.68 101 30 101 C 30 101.66 30 102.32 30 103 C 30.66 103.33 31.32 103.66 32 104 C 30.02 104.99 30.02 104.99 28 106 C 27.8509288 108.0745356 27.8509288 108.0745356 29 110 C 27.68 109.67 26.36 109.34 25 109 C 25 107.35 25 105.7 25 104 C 24.01 104 23.02 104 22 104 C 21.83312552 106.41645782 21.83312552 106.41645782 22 109 C 22.66 109.66 23.32 110.32 24 111 C 22.515 111.495 22.515 111.495 21 112 C 21 113.32 21 114.64 21 116 C 21 116.66 21 117.32 21 118 C 25.37702633 116.77443263 29.69677317 115.46939453 34 114 C 34 113.01 34 112.02 34 111 C 34.66 111 35.32 111 36 111 C 36 111.66 36 112.32 36 113 C 36.99 113 37.98 113 39 113 C 39.495 116.465 39.495 116.465 40 120 C 40.66 120 41.32 120 42 120 C 42 120.66 42 121.32 42 122 C 36.62694301 123.67357513 36.62694301 123.67357513 34 124 C 32 122.625 32 122.625 31 121 C 29.515 121.495 29.515 121.495 28 122 C 27.26676204 124.01508358 27.26676204 124.01508358 27 126 C 28.485 126.99 28.485 126.99 30 128 C 31.33841672 127.68770276 32.67139075 127.35169068 34 127 C 36.75 127.4375 36.75 127.4375 39 128 C 38.01 127.505 38.01 127.505 37 127 C 37 126.01 37 125.02 37 124 C 38.32 124.33 39.64 124.66 41 125 C 40.7525 126.3921875 40.7525 126.3921875 40.5 127.8125 C 39.70049416 132.7017878 39.70049416 132.7017878 42 137 C 41.01 137 40.02 137 39 137 C 39.3403125 138.11375 39.3403125 138.11375 39.6875 139.25 C 40 142 40 142 38.4375 144 C 37.963125 144.66 37.48875 145.32 37 146 C 37.70957237 148.73398135 37.70957237 148.73398135 39 151 C 38.34 151.33 37.68 151.66 37 152 C 36.34 151.67 35.68 151.34 35 151 C 35 151.66 35 152.32 35 153 C 23.45 153 11.9 153 0 153 C 0 106.47 0 59.94 0 12 C 0.99 12 1.98 12 3 12 C 2.01 11.34 1.02 10.68 0 10 C -0.29296875 7.6171875 -0.29296875 7.6171875 -0.1875 4.875 C -0.16042969 3.96492187 -0.13335937 3.05484375 -0.10546875 2.1171875 C -0.07066406 1.41851563 -0.03585938 0.71984375 0 0 Z M 5 12 C 4.01 12.495 4.01 12.495 3 13 C 3.33 13.66 3.66 14.32 4 15 C 4.66 14.67 5.32 14.34 6 14 C 5.67 13.34 5.34 12.68 5 12 Z M 5 30 C 6 32 6 32 6 32 Z M 7 38 C 8 40 8 40 8 40 Z M 2 40 C 2 40.66 2 41.32 2 42 C 2.66 41.67 3.32 41.34 4 41 C 3.34 40.67 2.68 40.34 2 40 Z M 8 42 C 8.66 42.66 9.32 43.32 10 44 C 10 43.34 10 42.68 10 42 C 9.34 42 8.68 42 8 42 Z M 4 51 C 4.33 51.66 4.66 52.32 5 53 C 5.33 52.34 5.66 51.68 6 51 C 5.34 51 4.68 51 4 51 Z M 11 51 C 11.66 52.32 12.32 53.64 13 55 C 13.99 54.67 14.98 54.34 16 54 C 15.67 53.34 15.34 52.68 15 52 C 12.97536745 51.34786708 12.97536745 51.34786708 11 51 Z M 6 53 C 6 53.66 6 54.32 6 55 C 6.66 55 7.32 55 8 55 C 8 54.34 8 53.68 8 53 C 7.34 53 6.68 53 6 53 Z M 2 54 C 2.33 54.99 2.66 55.98 3 57 C 3 56.01 3 55.02 3 54 C 2.67 54 2.34 54 2 54 Z M 9 54 C 9 54.99 9 55.98 9 57 C 9.99 56.34 10.98 55.68 12 55 C 11.01 54.67 10.02 54.34 9 54 Z M 5 55 C 6 58 6 58 6 58 Z M 4 58 C 4 61 4 61 4 61 Z M 13 61 C 13.33 61.99 13.66 62.98 14 64 C 14 63.01 14 62.02 14 61 C 13.67 61 13.34 61 13 61 Z M 3 66 C 4 68 4 68 4 68 Z M 5 66 C 6 68 6 68 6 68 Z M 14 70 C 14 70.99 14 71.98 14 73 C 14.99 72.67 15.98 72.34 17 72 C 16.01 71.34 15.02 70.68 14 70 Z M 10 73 C 11 75 11 75 11 75 Z M 2 75 C 6 76 6 76 6 76 Z M 10 76 C 11 78 11 78 11 78 Z M 18 78 C 18 78.66 18 79.32 18 80 C 18.66 80 19.32 80 20 80 C 20 79.34 20 78.68 20 78 C 19.34 78 18.68 78 18 78 Z M 9 81 C 9.66 81 10.32 81 11 81 C 11.33 81.66 11.66 82.32 12 83 C 12.66 81.68 13.32 80.36 14 79 C 11.67642489 78.81509993 11.67642489 78.81509993 9 81 Z M 20 81 C 19.67 81.66 19.34 82.32 19 83 C 19.99 82.67 20.98 82.34 22 82 C 21.34 81.67 20.68 81.34 20 81 Z M 24 81 C 23.34 82.65 22.68 84.3 22 86 C 22.66 86 23.32 86 24 86 C 24.33 86.99 24.66 87.98 25 89 C 25.66 89.33 26.32 89.66 27 90 C 27.66 90.66 28.32 91.32 29 92 C 29.9593157 89.80485127 29.9593157 89.80485127 30 87 C 28.57113621 84.64430565 26.94938716 82.99580114 25 81 C 24.67 81 24.34 81 24 81 Z M 21 83 C 22 85 22 85 22 85 Z M 17 84 C 18.485 84.99 18.485 84.99 20 86 C 20 85.34 20 84.68 20 84 C 19.01 84 18.02 84 17 84 Z M 10 85 C 10.33 85.99 10.66 86.98 11 88 C 11.99 88 12.98 88 14 88 C 14 87.34 14 86.68 14 86 C 12.68 85.67 11.36 85.34 10 85 Z M 15 85 C 14.896875 85.61875 14.79375 86.2375 14.6875 86.875 C 14 89 14 89 11 91 C 11 91.99 11 92.98 11 94 C 12.2065625 94.433125 12.2065625 94.433125 13.4375 94.875 C 16 96 16 96 17 98 C 19.52733235 98.65555119 19.52733235 98.65555119 22 99 C 22.88492145 96.52221994 23.11637742 95.33943414 22.25 92.8125 C 21.04890402 90.68217062 21.04890402 90.68217062 18 90 C 18 88.68 18 87.36 18 86 C 17.01 85.67 16.02 85.34 15 85 Z M 5 97 C 6 99 6 99 6 99 Z M 24 98 C 24 98.66 24 99.32 24 100 C 24.66 100 25.32 100 26 100 C 26 99.34 26 98.68 26 98 C 25.34 98 24.68 98 24 98 Z M 25 102 C 25 102.66 25 103.32 25 104 C 25.99 103.67 26.98 103.34 28 103 C 27.01 102.67 26.02 102.34 25 102 Z M 14 103 C 14.33 103.66 14.66 104.32 15 105 C 15.66 105 16.32 105 17 105 C 17 104.34 17 103.68 17 103 C 16.01 103 15.02 103 14 103 Z M 20 105 C 21 107 21 107 21 107 Z M 13 108 C 13.11306697 109.95894361 13.11306697 109.95894361 14 112 C 16.49034386 113.29660434 16.49034386 113.29660434 19 114 C 19 113.34 19 112.68 19 112 C 18.34 112 17.68 112 17 112 C 17 111.34 17 110.68 17 110 C 17.66 110 18.32 110 19 110 C 19 109.34 19 108.68 19 108 C 17.02 108 15.04 108 13 108 Z M 11 111 C 10.01 111.66 9.02 112.32 8 113 C 13.8410259 117.86770525 13.8410259 117.86770525 21 120 C 21.33 120.66 21.66 121.32 22 122 C 22.99 122.66 23.98 123.32 25 124 C 25.33 122.35 25.66 120.7 26 119 C 25.278125 118.9175 24.55625 118.835 23.8125 118.75 C 20.40347744 117.84092732 18.67316824 116.272193 16 114 C 14.3497306 112.9731657 12.68756133 111.96432076 11 111 Z M 28 117 C 28 120 28 120 28 120 Z M 32 117 C 33 119 33 119 33 119 Z M 33 119 C 34 121 34 121 34 121 Z M 34 131 C 34 131.99 34 132.98 34 134 C 34.66 134 35.32 134 36 134 C 36 134.66 36 135.32 36 136 C 36.66 136 37.32 136 38 136 C 37.34 134.35 36.68 132.7 36 131 C 35.34 131 34.68 131 34 131 Z M 32 136 C 32 136.66 32 137.32 32 138 C 32.66 138 33.32 138 34 138 C 34 137.34 34 136.68 34 136 C 33.34 136 32.68 136 32 136 Z M 29 139 C 30 141 30 141 30 141 Z M 21 144 C 21 144.66 21 145.32 21 146 C 22.32 145.67 23.64 145.34 25 145 C 23.68 144.67 22.36 144.34 21 144 Z M 32 145 C 29.69328085 147.71549154 29.69328085 147.71549154 30.375 150.1875 C 30.58125 150.785625 30.7875 151.38375 31 152 C 32.32 151.67 33.64 151.34 35 151 C 34.10232344 147.8684413 34.10232344 147.8684413 32 145 Z M 28 146 C 28.66 146.66 29.32 147.32 30 148 C 30 147.34 30 146.68 30 146 C 29.34 146 28.68 146 28 146 Z M 26 148 C 25.01 148.99 24.02 149.98 23 151 C 25.475 151.495 25.475 151.495 28 152 C 27.34 150.68 26.68 149.36 26 148 Z" stroke-linecap="round" />
</g>
		<g transform="matrix(1 0 0 1 -490.37 251.98)"  >
<path style="stroke: none; stroke-width: 1; stroke-dasharray: none; stroke-linecap: butt; stroke-dashoffset: 0; stroke-linejoin: miter; stroke-miterlimit: 4; fill: rgb(255,87,87); fill-rule: nonzero; opacity: 1;" vector-effect="non-scaling-stroke"  transform=" translate(-1, -4)" d="M 0 0 C 1.32 0.66 2.64 1.32 4 2 C 3.67 2.99 3.34 3.98 3 5 C 3.33 5.66 3.66 6.32 4 7 C 3.01 7.33 2.02 7.66 1 8 C 1 7.34 1 6.68 1 6 C 0.01 5.67 -0.98 5.34 -2 5 C -1.67 4.360625 -1.34 3.72125 -1 3.0625 C 0.07271225 1.23205433 0.07271225 1.23205433 0 0 Z" stroke-linecap="round" />
</g>
		<g transform="matrix(1 0 0 1 -495.87 259.48)"  >
<path style="stroke: none; stroke-width: 1; stroke-dasharray: none; stroke-linecap: butt; stroke-dashoffset: 0; stroke-linejoin: miter; stroke-miterlimit: 4; fill: rgb(255,87,87); fill-rule: nonzero; opacity: 1;" vector-effect="non-scaling-stroke"  transform=" translate(0.5, -4.5)" d="M 0 0 C 0.66 0.33 1.32 0.66 2 1 C 1.835 1.763125 1.67 2.52625 1.5 3.3125 C 0.90854604 6.03596236 0.90854604 6.03596236 1 9 C 0.34 8.67 -0.32 8.34 -1 8 C -1.73075648 5.6859378 -2.40138258 3.35171131 -3 1 C -2.01 0.67 -1.02 0.34 0 0 Z" stroke-linecap="round" />
</g>
		<g transform="matrix(1 0 0 1 -485.37 260.98)"  >
<path style="stroke: none; stroke-width: 1; stroke-dasharray: none; stroke-linecap: butt; stroke-dashoffset: 0; stroke-linejoin: miter; stroke-miterlimit: 4; fill: rgb(255,87,87); fill-rule: nonzero; opacity: 1;" vector-effect="non-scaling-stroke"  transform=" translate(1, -3)" d="M 0 0 C 0.66 0.33 1.32 0.66 2 1 C 1.67 2.65 1.34 4.3 1 6 C -0.65 6 -2.3 6 -4 6 C -4 5.34 -4 4.68 -4 4 C -3.01 3.67 -2.02 3.34 -1 3 C -0.67 2.01 -0.34 1.02 0 0 Z" stroke-linecap="round" />
</g>
		<g transform="matrix(1 0 0 1 -492.37 268.48)"  >
<path style="stroke: none; stroke-width: 1; stroke-dasharray: none; stroke-linecap: butt; stroke-dashoffset: 0; stroke-linejoin: miter; stroke-miterlimit: 4; fill: rgb(255,87,87); fill-rule: nonzero; opacity: 1;" vector-effect="non-scaling-stroke"  transform=" translate(-1, -5.5)" d="M 0 0 C 1.921875 0.7109375 1.921875 0.7109375 4 2 C 4.828125 4.1640625 4.828125 4.1640625 5.25 6.625 C 5.39953125 7.44226563 5.5490625 8.25953125 5.703125 9.1015625 C 5.85007812 10.04128906 5.85007812 10.04128906 6 11 C 5.34 11 4.68 11 4 11 C 3.67 9.35 3.34 7.7 3 6 C 2.071875 6.4640625 2.071875 6.4640625 1.125 6.9375 C -0.25 7.625 -1.625 8.3125 -3 9 C -3.75 7.3125 -3.75 7.3125 -4 5 C -2.0625 2.25 -2.0625 2.25 0 0 Z" stroke-linecap="round" />
</g>
		<g transform="matrix(1 0 0 1 -484.37 282.95)"  >
<path style="stroke: none; stroke-width: 1; stroke-dasharray: none; stroke-linecap: butt; stroke-dashoffset: 0; stroke-linejoin: miter; stroke-miterlimit: 4; fill: rgb(255,87,87); fill-rule: nonzero; opacity: 1;" vector-effect="non-scaling-stroke"  transform=" translate(1.06, -4.03)" d="M 0 0 C 1.4540625 0.0309375 1.4540625 0.0309375 2.9375 0.0625 C 2.9375 1.0525 2.9375 2.0425 2.9375 3.0625 C 1.9475 3.5575 1.9475 3.5575 0.9375 4.0625 C 1.5975 5.3825 2.2575 6.7025 2.9375 8.0625 C 0.05312221 6.76950306 -1.93469421 5.40308637 -4.0625 3.0625 C -4.3925 3.7225 -4.7225 4.3825 -5.0625 5.0625 C -3.9375 0.08035714 -3.9375 0.08035714 0 0 Z" stroke-linecap="round" />
</g>
		<g transform="matrix(1 0 0 1 -477.87 289.98)"  >
<path style="stroke: none; stroke-width: 1; stroke-dasharray: none; stroke-linecap: butt; stroke-dashoffset: 0; stroke-linejoin: miter; stroke-miterlimit: 4; fill: rgb(255,87,87); fill-rule: nonzero; opacity: 1;" vector-effect="non-scaling-stroke"  transform=" translate(-1.5, -3)" d="M 0 0 C 1.32 0.99 2.64 1.98 4 3 C 4.33 2.34 4.66 1.68 5 1 C 5 1.66 5 2.32 5 3 C 5.66 3 6.32 3 7 3 C 6.67 3.66 6.34 4.32 6 5 C 5.34 4.67 4.68 4.34 4 4 C 3.67 4.66 3.34 5.32 3 6 C 0.69 5.01 -1.62 4.02 -4 3 C -3.01 2.67 -2.02 2.34 -1 2 C -0.67 1.34 -0.34 0.68 0 0 Z" stroke-linecap="round" />
</g>
		<g transform="matrix(1 0 0 1 385.13 332.98)"  >
<path style="stroke: none; stroke-width: 1; stroke-dasharray: none; stroke-linecap: butt; stroke-dashoffset: 0; stroke-linejoin: miter; stroke-miterlimit: 4; fill: rgb(255,87,87); fill-rule: nonzero; opacity: 1;" vector-effect="non-scaling-stroke"  transform=" translate(126.5, -43)" d="M 0 0 C 0 7.59 0 15.18 0 23 C -0.66 23 -1.32 23 -2 23 C -2 23.66 -2 24.32 -2 25 C -4.97 25.495 -4.97 25.495 -8 26 C -8 26.99 -8 27.98 -8 29 C -9.98 29.66 -11.96 30.32 -14 31 C -14 32.32 -14 33.64 -14 35 C -17.3 35 -20.6 35 -24 35 C -24 35.66 -24 36.32 -24 37 C -21.36 37 -18.72 37 -16 37 C -19.90028225 39.60018816 -23.47434569 39.15085514 -28 39 C -28 39.99 -28 40.98 -28 42 C -29.32 42 -30.64 42 -32 42 C -32 42.66 -32 43.32 -32 44 C -33.32 44 -34.64 44 -36 44 C -36 44.66 -36 45.32 -36 46 C -37.32 46 -38.64 46 -40 46 C -40 47.32 -40 48.64 -40 50 C -43.96 50 -47.92 50 -52 50 C -52 51.32 -52 52.64 -52 54 C -53.32 54 -54.64 54 -56 54 C -56 55.32 -56 56.64 -56 58 C -58.64 58 -61.28 58 -64 58 C -64 59.32 -64 60.64 -64 62 C -65.32 62 -66.64 62 -68 62 C -68 64.64 -68 67.28 -68 70 C -70.64 70 -73.28 70 -76 70 C -76 71.32 -76 72.64 -76 74 C -77.32 74 -78.64 74 -80 74 C -80 75.32 -80 76.64 -80 78 C -81.32 78 -82.64 78 -84 78 C -84 79.32 -84 80.64 -84 82 C -85.32 82 -86.64 82 -88 82 C -88 83.32 -88 84.64 -88 86 C -90.64 86 -93.28 86 -96 86 C -96 83.69 -96 81.38 -96 79 C -97.32 79 -98.64 79 -100 79 C -100 79.99 -100 80.98 -100 82 C -101.32 82 -102.64 82 -104 82 C -104 83.32 -104 84.64 -104 86 C -153.17 86 -202.34 86 -253 86 C -249.51488165 83.67658777 -246.54680528 83.34520023 -242.5 82.875 C -241.82324219 82.78863281 -241.14648438 82.70226562 -240.44921875 82.61328125 C -237.61134191 82.26064567 -234.86230747 82 -232 82 C -232 82.66 -232 83.32 -232 84 C -229.41515574 83.54915507 -226.8323671 83.08964737 -224.25 82.625 C -223.52039063 82.49867188 -222.79078125 82.37234375 -222.0390625 82.2421875 C -218.38058033 81.57700892 -215.23068144 80.85688699 -212 79 C -211.01 78.67 -210.02 78.34 -209 78 C -206.40819575 76.71880017 -203.8441387 75.38910567 -201.27734375 74.05859375 C -199 73 -199 73 -197 73 C -196.67 72.34 -196.34 71.68 -196 71 C -194.36152397 70.7951905 -192.72262227 70.59336425 -191.08203125 70.40625 C -187.9473342 69.79460179 -185.27245581 68.40150642 -182.3984375 67.04296875 C -179.11277053 65.61418523 -175.7359553 64.69807188 -172.29296875 63.7265625 C -169.75904799 62.98931629 -169.75904799 62.98931629 -166.625 61.3125 C -164 60 -164 60 -160 60 C -159.505 59.01 -159.505 59.01 -159 58 C -157.0390625 57.3671875 -157.0390625 57.3671875 -154.625 56.875 C -153.43777344 56.62363281 -153.43777344 56.62363281 -152.2265625 56.3671875 C -150 56 -150 56 -147 56 C -147 55.34 -147 54.68 -147 54 C -145.948125 53.566875 -144.89625 53.13375 -143.8125 52.6875 C -141.50189789 51.70654015 -139.52305153 50.70474619 -137.375 49.375 C -133.54341877 47.15671613 -130.39370143 47 -126 47 C -125.505 46.01 -125.505 46.01 -125 45 C -123.06640625 44.2890625 -123.06640625 44.2890625 -120.5625 43.625 C -115.96733282 42.33281526 -111.62466865 40.71525165 -107.2265625 38.8671875 C -105 38 -105 38 -103.1171875 37.5390625 C -100.13947114 36.78089856 -97.35704913 35.62709278 -94.5 34.5 C -88.38265306 32.08673469 -88.38265306 32.08673469 -85.65625 31.46875 C -85.1096875 31.3140625 -84.563125 31.159375 -84 31 C -83.67 30.34 -83.34 29.68 -83 29 C -81.07421875 28.18359375 -81.07421875 28.18359375 -78.6875 27.4375 C -77.90761719 27.18871094 -77.12773438 26.93992187 -76.32421875 26.68359375 C -74 26 -74 26 -71.83203125 25.53515625 C -69.77243568 25.09275145 -69.77243568 25.09275145 -68 23 C -66.00390625 22.2890625 -66.00390625 22.2890625 -63.5625 21.625 C -58.74438128 20.26138149 -54.11017854 18.58515695 -49.4453125 16.76953125 C -47 16 -47 16 -43 16 C -42.67 15.34 -42.34 14.68 -42 14 C -39.75 13.4375 -39.75 13.4375 -37 13 C -35.33333333 12.66666667 -33.66666667 12.33333333 -32 12 C -32 11.34 -32 10.68 -32 10 C -29.1965243 9.28800617 -26.38629584 8.62642265 -23.5625 8 C -22.78003906 7.8246875 -21.99757813 7.649375 -21.19140625 7.46875 C -19.47000685 7.10053623 -17.73638878 6.78939813 -16 6.5 C -15.34 6.335 -14.68 6.17 -14 6 C -13.67 5.34 -13.34 4.68 -13 4 C -12.01 4.33 -11.02 4.66 -10 5 C -10 4.34 -10 3.68 -10 3 C -2.6 0 -2.6 0 0 0 Z" stroke-linecap="round" />
</g>
		<g transform="matrix(1 0 0 1 -455.87 323.48)"  >
<path style="stroke: none; stroke-width: 1; stroke-dasharray: none; stroke-linecap: butt; stroke-dashoffset: 0; stroke-linejoin: miter; stroke-miterlimit: 4; fill: rgb(255,87,87); fill-rule: nonzero; opacity: 1;" vector-effect="non-scaling-stroke"  transform=" translate(-3.5, -4.5)" d="M 0 0 C 0.33 0.66 0.66 1.32 1 2 C 3.35599235 2.46751788 3.35599235 2.46751788 6.0625 2.625 C 7.44115234 2.73714844 7.44115234 2.73714844 8.84765625 2.8515625 C 9.55792969 2.90054688 10.26820312 2.94953125 11 3 C 11.33 3.99 11.66 4.98 12 6 C 11.34 6 10.68 6 10 6 C 10 5.34 10 4.68 10 4 C 9.34 4 8.68 4 8 4 C 8 5.32 8 6.64 8 8 C 8.99 7.67 9.98 7.34 11 7 C 11.33 7.66 11.66 8.32 12 9 C 9.36 9 6.72 9 4 9 C 4 8.34 4 7.68 4 7 C 1.69 7.33 -0.62 7.66 -3 8 C -3.66 7.01 -4.32 6.02 -5 5 C -4.360625 4.54625 -3.72125 4.0925 -3.0625 3.625 C -0.90297594 2.16078274 -0.90297594 2.16078274 0 0 Z M 0 4 C 0 4.66 0 5.32 0 6 C 0.66 5.67 1.32 5.34 2 5 C 1.34 4.67 0.68 4.34 0 4 Z" stroke-linecap="round" />
</g>
		<g transform="matrix(1 0 0 1 -465.87 330.48)"  >
<path style="stroke: none; stroke-width: 1; stroke-dasharray: none; stroke-linecap: butt; stroke-dashoffset: 0; stroke-linejoin: miter; stroke-miterlimit: 4; fill: rgb(255,87,87); fill-rule: nonzero; opacity: 1;" vector-effect="non-scaling-stroke"  transform=" translate(-2.5, -3.5)" d="M 0 0 C 1.98 0.99 3.96 1.98 6 3 C 5.34 4.32 4.68 5.64 4 7 C 3.01 7 2.02 7 1 7 C 1.33 6.01 1.66 5.02 2 4 C 1.01 3.67 0.02 3.34 -1 3 C -0.67 2.01 -0.34 1.02 0 0 Z" stroke-linecap="round" />
</g>
		<g transform="matrix(1 0 0 1 -456.87 334.98)"  >
<path style="stroke: none; stroke-width: 1; stroke-dasharray: none; stroke-linecap: butt; stroke-dashoffset: 0; stroke-linejoin: miter; stroke-miterlimit: 4; fill: rgb(255,87,87); fill-rule: nonzero; opacity: 1;" vector-effect="non-scaling-stroke"  transform=" translate(-0.5, -5)" d="M 0 0 C 0.99 0.33 1.98 0.66 3 1 C 2.4140625 7.15234375 2.4140625 7.15234375 2 9 C 1.01 9.495 1.01 9.495 0 10 C 0 7.69 0 5.38 0 3 C -0.66 3 -1.32 3 -2 3 C -2 2.34 -2 1.68 -2 1 C -1.34 0.67 -0.68 0.34 0 0 Z" stroke-linecap="round" />
</g>
		<g transform="matrix(1 0 0 1 -444.37 355.48)"  >
<path style="stroke: none; stroke-width: 1; stroke-dasharray: none; stroke-linecap: butt; stroke-dashoffset: 0; stroke-linejoin: miter; stroke-miterlimit: 4; fill: rgb(255,87,87); fill-rule: nonzero; opacity: 1;" vector-effect="non-scaling-stroke"  transform=" translate(3, -4.5)" d="M 0 0 C 0.33 2.31 0.66 4.62 1 7 C 1.99 7 2.98 7 4 7 C 3.67 7.66 3.34 8.32 3 9 C 0.625 8.75 0.625 8.75 -2 8 C -3.3125 5.9375 -3.3125 5.9375 -4 4 C -5.98 4.33 -7.96 4.66 -10 5 C -10 3.68 -10 2.36 -10 1 C -2.25 0 -2.25 0 0 0 Z M -2 5 C -2 5.66 -2 6.32 -2 7 C -1.34 7 -0.68 7 0 7 C 0 6.34 0 5.68 0 5 C -0.66 5 -1.32 5 -2 5 Z" stroke-linecap="round" />
</g>
		<g transform="matrix(1 0 0 1 -397.37 355.98)"  >
<path style="stroke: none; stroke-width: 1; stroke-dasharray: none; stroke-linecap: butt; stroke-dashoffset: 0; stroke-linejoin: miter; stroke-miterlimit: 4; fill: rgb(255,87,87); fill-rule: nonzero; opacity: 1;" vector-effect="non-scaling-stroke"  transform=" translate(-3, -4)" d="M 0 0 C 1.32 0 2.64 0 4 0 C 4 0.66 4 1.32 4 2 C 4.66 2.33 5.32 2.66 6 3 C 4.68 3 3.36 3 2 3 C 2 3.66 2 4.32 2 5 C 2.99 5 3.98 5 5 5 C 4.67 5.99 4.34 6.98 4 8 C 3.01 7.67 2.02 7.34 1 7 C 0.67 4.69 0.34 2.38 0 0 Z" stroke-linecap="round" />
</g>
		<g transform="matrix(1 0 0 1 -412.37 358.98)"  >
<path style="stroke: none; stroke-width: 1; stroke-dasharray: none; stroke-linecap: butt; stroke-dashoffset: 0; stroke-linejoin: miter; stroke-miterlimit: 4; fill: rgb(255,87,87); fill-rule: nonzero; opacity: 1;" vector-effect="non-scaling-stroke"  transform=" translate(-8, -4)" d="M 0 0 C 2.31 0.33 4.62 0.66 7 1 C 7 1.66 7 2.32 7 3 C 7.66 3 8.32 3 9 3 C 9 3.66 9 4.32 9 5 C 12.465 4.505 12.465 4.505 16 4 C 15.01 4.495 15.01 4.495 14 5 C 13.67 5.66 13.34 6.32 13 7 C 10.9375 7.625 10.9375 7.625 9 8 C 9 7.34 9 6.68 9 6 C 8.34 6 7.68 6 7 6 C 6.67 5.34 6.34 4.68 6 4 C 4.02111039 3.27306096 2.02045442 2.60183749 0 2 C 0 1.34 0 0.68 0 0 Z" stroke-linecap="round" />
</g>
		<g transform="matrix(1 0 0 1 -355.87 357.98)"  >
<path style="stroke: none; stroke-width: 1; stroke-dasharray: none; stroke-linecap: butt; stroke-dashoffset: 0; stroke-linejoin: miter; stroke-miterlimit: 4; fill: rgb(255,87,87); fill-rule: nonzero; opacity: 1;" vector-effect="non-scaling-stroke"  transform=" translate(-3.5, -3)" d="M 0 0 C 2.31 0.66 4.62 1.32 7 2 C 7 3.32 7 4.64 7 6 C 4 6 4 6 1.8125 4.125 C 0 2 0 2 0 0 Z" stroke-linecap="round" />
</g>
		<g transform="matrix(1 0 0 1 -430.37 365.48)"  >
<path style="stroke: none; stroke-width: 1; stroke-dasharray: none; stroke-linecap: butt; stroke-dashoffset: 0; stroke-linejoin: miter; stroke-miterlimit: 4; fill: rgb(255,87,87); fill-rule: nonzero; opacity: 1;" vector-effect="non-scaling-stroke"  transform=" translate(-4, -3.5)" d="M 0 0 C 2.94956528 1.36944102 5.52468811 2.87830409 8 5 C 8 5.66 8 6.32 8 7 C 4.59679258 5.98823563 3.24274669 5.35156418 1.1875 2.375 C 0.795625 1.59125 0.40375 0.8075 0 0 Z" stroke-linecap="round" />
</g>
		<g transform="matrix(1 0 0 1 -361.87 368.98)"  >
<path style="stroke: none; stroke-width: 1; stroke-dasharray: none; stroke-linecap: butt; stroke-dashoffset: 0; stroke-linejoin: miter; stroke-miterlimit: 4; fill: rgb(255,87,87); fill-rule: nonzero; opacity: 1;" vector-effect="non-scaling-stroke"  transform=" translate(-3.5, -7)" d="M 0 0 C 0.99 0.33 1.98 0.66 3 1 C 3 1.66 3 2.32 3 3 C 3.66 3 4.32 3 5 3 C 4.34 4.32 3.68 5.64 3 7 C 3.66 7 4.32 7 5 7 C 5.309375 7.78375 5.61875 8.5675 5.9375 9.375 C 6.92875038 11.92330128 6.92875038 11.92330128 8 14 C 5.34385824 13.63030147 4.25241746 13.29524408 2.48046875 11.22265625 C 2.05378906 10.50980469 1.62710938 9.79695312 1.1875 9.0625 C 0.74792969 8.35222656 0.30835938 7.64195312 -0.14453125 6.91015625 C -0.42683594 6.27980469 -0.70914063 5.64945313 -1 5 C -0.67 4.34 -0.34 3.68 0 3 C 0 2.01 0 1.02 0 0 Z" stroke-linecap="round" />
</g>
		<g transform="matrix(1 0 0 1 -366.37 371.53)"  >
<path style="stroke: none; stroke-width: 1; stroke-dasharray: none; stroke-linecap: butt; stroke-dashoffset: 0; stroke-linejoin: miter; stroke-miterlimit: 4; fill: rgb(255,87,87); fill-rule: nonzero; opacity: 1;" vector-effect="non-scaling-stroke"  transform=" translate(-3, -4.55)" d="M 0 0 C 0.99 0 1.98 0 3 0 C 4.32 2.97 5.64 5.94 7 9 C 4.125 9.125 4.125 9.125 1 9 C 0.34 8.34 -0.32 7.68 -1 7 C -0.625 3.375 -0.625 3.375 0 0 Z" stroke-linecap="round" />
</g>
		<g transform="matrix(1 0 0 1 -328.87 371.48)"  >
<path style="stroke: none; stroke-width: 1; stroke-dasharray: none; stroke-linecap: butt; stroke-dashoffset: 0; stroke-linejoin: miter; stroke-miterlimit: 4; fill: rgb(255,87,87); fill-rule: nonzero; opacity: 1;" vector-effect="non-scaling-stroke"  transform=" translate(-6.5, -4.5)" d="M 0 0 C 0.66 0.99 1.32 1.98 2 3 C 3.32 2.67 4.64 2.34 6 2 C 6.8353125 3.2375 6.8353125 3.2375 7.6875 4.5 C 9.74927133 7.2745414 9.74927133 7.2745414 12.75 7.3125 C 13.4925 7.209375 14.235 7.10625 15 7 C 15 7.66 15 8.32 15 9 C 10.05 9 5.1 9 0 9 C -0.66 7.35 -1.32 5.7 -2 4 C -1.34 4 -0.68 4 0 4 C 0 2.68 0 1.36 0 0 Z M 2 6 C 2 6.66 2 7.32 2 8 C 2.66 7.67 3.32 7.34 4 7 C 3.34 6.67 2.68 6.34 2 6 Z" stroke-linecap="round" />
</g>
		<g transform="matrix(1 0 0 1 -404.37 371.98)"  >
<path style="stroke: none; stroke-width: 1; stroke-dasharray: none; stroke-linecap: butt; stroke-dashoffset: 0; stroke-linejoin: miter; stroke-miterlimit: 4; fill: rgb(255,87,87); fill-rule: nonzero; opacity: 1;" vector-effect="non-scaling-stroke"  transform=" translate(-4, -4)" d="M 0 0 C 0.5775 0.37125 1.155 0.7425 1.75 1.125 C 4 2.29166667 4 2.29166667 6.25 1.125 C 6.8275 0.75375 7.405 0.3825 8 0 C 8.33 2.64 8.66 5.28 9 8 C 5.7 8 2.4 8 -1 8 C -0.67 5.36 -0.34 2.72 0 0 Z M 4 4 C 4 4.99 4 5.98 4 7 C 4.66 6.67 5.32 6.34 6 6 C 5.34 5.34 4.68 4.68 4 4 Z" stroke-linecap="round" />
</g>
		<g transform="matrix(1 0 0 1 -373.87 372.98)"  >
<path style="stroke: none; stroke-width: 1; stroke-dasharray: none; stroke-linecap: butt; stroke-dashoffset: 0; stroke-linejoin: miter; stroke-miterlimit: 4; fill: rgb(255,87,87); fill-rule: nonzero; opacity: 1;" vector-effect="non-scaling-stroke"  transform=" translate(-3.5, -3)" d="M 0 0 C 3.26954202 0.56371414 4.82575883 1.49962266 7 4 C 6.67 4.66 6.34 5.32 6 6 C 5.01 6 4.02 6 3 6 C 2.01 4.02 1.02 2.04 0 0 Z" stroke-linecap="round" />
</g>
</g>
</g>
<g transform="matrix(NaN NaN NaN NaN 0 0)"  >
<g style=""   >
</g>
</g>
</svg>